<svg xmlns="http://www.w3.org/2000/svg" height="20px" viewBox="0 -960 960 960" width="20px" fill="rgb(51, 23, 4)"><path d="M191-203q-35-35-35-85H72l24-72h84q17-22 42-35t54-13q29 0 54 13t42 35h196l84-336H216l8-24q8-22 26.5-35t41.5-13h452l-36 144h84l120 168-48 168h-48q0 50-35 85t-85 35q-50 0-85-35t-35-85H396q0 50-35 85t-85 35q-50 0-85-35Zm469-229h170l3-11-78-109h-65l-30 120Zm-12-248 4-16-84 336 4-16 34-136 42-168ZM24-424l18-72h198l-18 72H24Zm72-136 18-72h234l-18 72H96Zm180 320q20.4 0 34.2-13.8Q324-267.6 324-288q0-20.4-13.8-34.2Q296.4-336 276-336q-20.4 0-34.2 13.8Q228-308.4 228-288q0 20.4 13.8 34.2Q255.6-240 276-240Zm420 0q20.4 0 34.2-13.8Q744-267.6 744-288q0-20.4-13.8-34.2Q716.4-336 696-336q-20.4 0-34.2 13.8Q648-308.4 648-288q0 20.4 13.8 34.2Q675.6-240 696-240Z"/></svg>